<mxfile host="app.diagrams.net" modified="2021-02-09T12:31:55.844Z" agent="5.0 (Windows NT 10.0; Win64; x64) AppleWebKit/537.36 (KHTML, like Gecko) Chrome/88.0.4324.146 Safari/537.36" etag="3_mjgHNUAItHI1GluZ_R" version="14.2.9" type="github" pages="2">
  <diagram id="svCKmF_NuQhnTpBn_tCY" name="Page-1">
    <mxGraphModel dx="830" dy="499" grid="1" gridSize="10" guides="1" tooltips="1" connect="1" arrows="1" fold="1" page="1" pageScale="1" pageWidth="827" pageHeight="1169" math="0" shadow="0">
      <root>
        <mxCell id="0" />
        <mxCell id="1" parent="0" />
        <mxCell id="-UMS6NLJFWzqC6F6Hrim-1" value="" style="rounded=0;whiteSpace=wrap;html=1;" parent="1" vertex="1">
          <mxGeometry width="120" height="60" as="geometry" />
        </mxCell>
      </root>
    </mxGraphModel>
  </diagram>
  <diagram id="yhtmOBYt8toNOQeIU8E0" name="Page-2">
    <mxGraphModel dx="1038" dy="624" grid="1" gridSize="10" guides="1" tooltips="1" connect="1" arrows="1" fold="1" page="1" pageScale="1" pageWidth="827" pageHeight="1169" math="0" shadow="0">
      <root>
        <mxCell id="JNUcJ6G6C6MzYZCms4Ij-0" />
        <mxCell id="JNUcJ6G6C6MzYZCms4Ij-1" parent="JNUcJ6G6C6MzYZCms4Ij-0" />
      </root>
    </mxGraphModel>
  </diagram>
</mxfile>
